<svg width="41" height="41" viewBox="0 0 41 41" fill="none" xmlns="http://www.w3.org/2000/svg">
<g filter="url(#filter0_i_119_37)">
<rect x="0.422607" y="0.941406" width="40" height="40" rx="20" fill="#4FD3D3"/>
</g>
<path d="M25.0751 22.1974L25.6298 18.5803H22.1583V16.2246C22.1341 15.9544 22.171 15.6823 22.2662 15.4284C22.3614 15.1744 22.5124 14.9451 22.7082 14.7574C22.9039 14.5696 23.1393 14.4283 23.3971 14.3438C23.6548 14.2594 23.9282 14.2339 24.1971 14.2693H25.7754V11.1983C24.8489 11.0487 23.9127 10.9671 22.9742 10.9542C22.3285 10.905 21.6799 10.9984 21.0744 11.2279C20.4688 11.4573 19.9211 11.8171 19.4701 12.2818C19.0191 12.7465 18.6758 13.3047 18.4646 13.9169C18.2534 14.529 18.1793 15.1801 18.2478 15.8241V18.5803H15.0697V22.1974H18.2478V30.9414H22.1583V22.1974H25.0751Z" fill="#F5F5FF"/>
<defs>
<filter id="filter0_i_119_37" x="0.422607" y="0.941406" width="42" height="42" filterUnits="userSpaceOnUse" color-interpolation-filters="sRGB">
<feFlood flood-opacity="0" result="BackgroundImageFix"/>
<feBlend mode="normal" in="SourceGraphic" in2="BackgroundImageFix" result="shape"/>
<feColorMatrix in="SourceAlpha" type="matrix" values="0 0 0 0 0 0 0 0 0 0 0 0 0 0 0 0 0 0 127 0" result="hardAlpha"/>
<feOffset dx="2" dy="2"/>
<feGaussianBlur stdDeviation="1"/>
<feComposite in2="hardAlpha" operator="arithmetic" k2="-1" k3="1"/>
<feColorMatrix type="matrix" values="0 0 0 0 0.721569 0 0 0 0 0.721569 0 0 0 0 0.721569 0 0 0 0.08 0"/>
<feBlend mode="normal" in2="shape" result="effect1_innerShadow_119_37"/>
</filter>
</defs>
</svg>
