<svg width="41" height="41" viewBox="0 0 41 41" fill="none" xmlns="http://www.w3.org/2000/svg">
<g filter="url(#filter0_i_119_39)">
<rect x="0.422607" y="0.941406" width="40" height="40" rx="20" fill="#F5F5FF"/>
</g>
<path d="M20.4351 15.818C19.4207 15.8165 18.4287 16.1159 17.5845 16.6784C16.7404 17.2409 16.0821 18.0411 15.6928 18.9779C15.3036 19.9146 15.201 20.9457 15.398 21.9408C15.595 22.9359 16.0827 23.8502 16.7995 24.568C17.5162 25.2858 18.4298 25.7748 19.4246 25.9733C20.4193 26.1717 21.4506 26.0706 22.3879 25.6828C23.3252 25.2949 24.1264 24.6378 24.6901 23.7944C25.2539 22.9511 25.5548 21.9595 25.5548 20.9452C25.5557 20.2722 25.424 19.6057 25.1672 18.9836C24.9104 18.3616 24.5334 17.7963 24.0579 17.3201C23.5824 16.8439 23.0177 16.4662 22.396 16.2084C21.7744 15.9506 21.108 15.818 20.4351 15.818ZM20.4351 24.2774C19.7757 24.2789 19.1307 24.0848 18.5817 23.7195C18.0327 23.3543 17.6045 22.8343 17.3511 22.2256C17.0977 21.6168 17.0307 20.9466 17.1584 20.2997C17.2861 19.6528 17.6029 19.0583 18.0686 18.5915C18.5344 18.1248 19.1281 17.8066 19.7747 17.6775C20.4213 17.5483 21.0917 17.6138 21.7011 17.8658C22.3104 18.1178 22.8313 18.5449 23.1978 19.0931C23.5642 19.6412 23.7599 20.2858 23.7599 20.9452C23.7579 21.827 23.4072 22.6723 22.7843 23.2966C22.1615 23.9209 21.3169 24.2735 20.4351 24.2774ZM26.9597 15.6005C26.9597 15.8368 26.8896 16.0679 26.7583 16.2644C26.627 16.4609 26.4404 16.614 26.222 16.7045C26.0037 16.7949 25.7634 16.8186 25.5316 16.7725C25.2998 16.7263 25.0869 16.6125 24.9198 16.4454C24.7527 16.2783 24.6389 16.0654 24.5928 15.8336C24.5467 15.6018 24.5703 15.3616 24.6608 15.1432C24.7512 14.9249 24.9044 14.7382 25.1009 14.6069C25.2974 14.4756 25.5284 14.4056 25.7647 14.4056C25.9218 14.4052 26.0773 14.4359 26.2224 14.4959C26.3675 14.5558 26.4994 14.6438 26.6104 14.7548C26.7214 14.8658 26.8094 14.9977 26.8694 15.1428C26.9293 15.2879 26.96 15.4435 26.9597 15.6005ZM30.3545 16.8154C30.3873 15.261 29.8072 13.756 28.7396 12.6257C27.6071 11.5615 26.1036 10.982 24.5498 11.0108C22.8999 10.9183 17.9502 10.9183 16.3003 11.0108C14.7456 10.9805 13.2408 11.5602 12.1081 12.6257C11.0421 13.757 10.4623 15.2613 10.4932 16.8154C10.4007 18.4653 10.4007 23.415 10.4932 25.0649C10.4597 26.6202 11.0398 28.1262 12.1081 29.2571C13.241 30.3206 14.7442 30.9 16.2978 30.872C17.9477 30.9645 22.8974 30.9645 24.5473 30.872C26.1018 30.9048 27.6068 30.3248 28.7371 29.2571C29.8012 28.1247 30.3807 26.6212 30.352 25.0674C30.4445 23.4175 30.4445 18.4728 30.352 16.8179L30.3545 16.8154ZM28.2221 26.8498C28.0524 27.2797 27.7962 27.6701 27.4694 27.997C27.1426 28.3238 26.7521 28.58 26.3222 28.7497C24.3863 29.1437 22.4062 29.2758 20.4351 29.1421C18.461 29.2711 16.4786 29.1357 14.5404 28.7397C14.1105 28.57 13.7201 28.3138 13.3933 27.987C13.0665 27.6601 12.8103 27.2697 12.6406 26.8398C12.2391 24.9023 12.1004 22.9196 12.2281 20.9452C12.0991 18.9711 12.2345 16.9887 12.6306 15.0505C12.8003 14.6206 13.0565 14.2302 13.3833 13.9034C13.7101 13.5765 14.1005 13.3203 14.5304 13.1506C16.4715 12.7508 18.4576 12.6146 20.4351 12.7457C22.4091 12.6167 24.3915 12.7521 26.3297 13.1481C26.7596 13.3178 27.1501 13.574 27.4769 13.9009C27.8037 14.2277 28.0599 14.6181 28.2296 15.048C28.6277 16.9859 28.7631 18.9686 28.6321 20.9427C28.7619 22.9212 28.624 24.9082 28.2221 26.8498Z" fill="#4FD3D3"/>
<defs>
<filter id="filter0_i_119_39" x="0.422607" y="0.941406" width="41" height="41" filterUnits="userSpaceOnUse" color-interpolation-filters="sRGB">
<feFlood flood-opacity="0" result="BackgroundImageFix"/>
<feBlend mode="normal" in="SourceGraphic" in2="BackgroundImageFix" result="shape"/>
<feColorMatrix in="SourceAlpha" type="matrix" values="0 0 0 0 0 0 0 0 0 0 0 0 0 0 0 0 0 0 127 0" result="hardAlpha"/>
<feOffset dx="1" dy="1"/>
<feGaussianBlur stdDeviation="1.5"/>
<feComposite in2="hardAlpha" operator="arithmetic" k2="-1" k3="1"/>
<feColorMatrix type="matrix" values="0 0 0 0 0.878431 0 0 0 0 0.898039 0 0 0 0 0.901961 0 0 0 0.29 0"/>
<feBlend mode="normal" in2="shape" result="effect1_innerShadow_119_39"/>
</filter>
</defs>
</svg>
