<svg width="41" height="41" viewBox="0 0 41 41" fill="none" xmlns="http://www.w3.org/2000/svg">
<g filter="url(#filter0_i_119_40)">
<rect x="0.422607" y="0.941406" width="40" height="40" rx="20" fill="#F5F5FF"/>
</g>
<path d="M20.899 10.9599C19.8908 10.8896 18.8787 11.0198 17.9212 11.3429C16.9636 11.666 16.0796 12.1756 15.3201 12.8423C14.5606 13.509 13.9408 14.3196 13.4963 15.2273C13.0519 16.1349 12.7917 17.1216 12.7308 18.1303C12.7308 20.9501 14.3174 22.5516 15.2766 22.5516C15.6727 22.5516 15.9017 21.4468 15.9017 21.1342C15.9017 20.7617 14.9533 19.9695 14.9533 18.4194C14.9402 17.6832 15.0775 16.952 15.3568 16.2707C15.6362 15.5894 16.0516 14.9723 16.5778 14.4572C17.104 13.942 17.7297 13.5397 18.4168 13.2749C19.1039 13.01 19.8377 12.8882 20.5735 12.9169C21.1833 12.8503 21.8003 12.9155 22.3827 13.1081C22.9651 13.3007 23.4994 13.6161 23.9493 14.0331C24.3992 14.4501 24.7542 14.9589 24.9904 15.5251C25.2265 16.0912 25.3383 16.7015 25.3181 17.3146C25.3181 19.4407 24.4617 23.4273 21.7019 23.4273C21.4644 23.4371 21.2274 23.3991 21.0049 23.3156C20.7824 23.2322 20.5789 23.105 20.4064 22.9415C20.2339 22.778 20.096 22.5815 20.0008 22.3638C19.9055 22.1461 19.8549 21.9114 19.852 21.6738C19.852 20.1601 20.9097 18.6956 20.9097 17.1326C20.9097 14.482 17.15 14.9616 17.15 18.1646C17.1267 18.8614 17.2583 19.5546 17.5354 20.1943C16.704 22.9235 16.1411 25.7273 15.8546 28.5659C15.8546 29.3217 15.9617 30.0646 16.0345 30.8247C16.1715 30.9767 16.103 30.9617 16.3107 30.8846C17.8688 28.8789 18.8563 26.4895 19.169 23.969C19.4737 24.4245 19.8887 24.7955 20.3754 25.0474C20.862 25.2994 21.4045 25.4241 21.9524 25.4099C26.2045 25.4099 28.1143 21.267 28.1143 17.5308C28.0837 16.6218 27.8713 15.7281 27.4897 14.9025C27.1081 14.0768 26.5651 13.336 25.8926 12.7235C25.2201 12.1111 24.4318 11.6396 23.5742 11.3367C22.7165 11.0338 21.8069 10.9057 20.899 10.9599Z" fill="#4FD3D3"/>
<defs>
<filter id="filter0_i_119_40" x="0.422607" y="0.941406" width="41" height="41" filterUnits="userSpaceOnUse" color-interpolation-filters="sRGB">
<feFlood flood-opacity="0" result="BackgroundImageFix"/>
<feBlend mode="normal" in="SourceGraphic" in2="BackgroundImageFix" result="shape"/>
<feColorMatrix in="SourceAlpha" type="matrix" values="0 0 0 0 0 0 0 0 0 0 0 0 0 0 0 0 0 0 127 0" result="hardAlpha"/>
<feOffset dx="1" dy="1"/>
<feGaussianBlur stdDeviation="1.5"/>
<feComposite in2="hardAlpha" operator="arithmetic" k2="-1" k3="1"/>
<feColorMatrix type="matrix" values="0 0 0 0 0.878431 0 0 0 0 0.898039 0 0 0 0 0.901961 0 0 0 0.29 0"/>
<feBlend mode="normal" in2="shape" result="effect1_innerShadow_119_40"/>
</filter>
</defs>
</svg>
