<svg width="41" height="41" viewBox="0 0 41 41" fill="none" xmlns="http://www.w3.org/2000/svg">
<g filter="url(#filter0_i_119_38)">
<rect x="0.422607" y="0.941406" width="40" height="40" rx="20" fill="#F5F5FF"/>
</g>
<path d="M28.3695 16.8671C28.3823 17.0449 28.3823 17.2228 28.3823 17.4007C28.3929 18.9353 28.0984 20.4566 27.516 21.8764C26.9336 23.2962 26.0749 24.5861 24.9898 25.6713C23.9046 26.7564 22.6147 27.6151 21.1949 28.1975C19.7751 28.7799 18.2538 29.0743 16.7192 29.0638C14.4864 29.0683 12.2998 28.4275 10.4226 27.2185C10.7514 27.255 11.082 27.2722 11.4127 27.27C13.258 27.2749 15.0511 26.6581 16.5028 25.519C15.6475 25.504 14.8183 25.2222 14.131 24.7132C13.4436 24.2041 12.9324 23.493 12.6686 22.6793C12.9246 22.7201 13.1832 22.7416 13.4423 22.7436C13.8039 22.742 14.1639 22.6953 14.5139 22.6043C13.5868 22.4149 12.7538 21.9106 12.1562 21.177C11.5585 20.4434 11.233 19.5257 11.2349 18.5794V18.5302C11.8031 18.8475 12.4383 19.0259 13.0887 19.0509C12.218 18.4708 11.6017 17.5801 11.3655 16.5608C11.1293 15.5416 11.2911 14.4706 11.8178 13.5666C12.8478 14.8333 14.1325 15.8695 15.5887 16.6079C17.0448 17.3463 18.6399 17.7705 20.2704 17.8529C20.2049 17.5443 20.1712 17.2297 20.1697 16.9142C20.1714 16.0922 20.4198 15.2896 20.8829 14.6105C21.346 13.9313 22.0023 13.4068 22.7669 13.105C23.5315 12.8032 24.3691 12.7379 25.1713 12.9177C25.9734 13.0974 26.703 13.5139 27.2657 14.1131C28.1838 13.9362 29.0642 13.6012 29.8675 13.123C29.5617 14.0702 28.9208 14.8734 28.0651 15.3818C28.8786 15.2862 29.6732 15.0695 30.4226 14.7389C29.863 15.5589 29.1688 16.2784 28.3695 16.8671Z" fill="#4FD3D3"/>
<defs>
<filter id="filter0_i_119_38" x="0.422607" y="0.941406" width="41" height="41" filterUnits="userSpaceOnUse" color-interpolation-filters="sRGB">
<feFlood flood-opacity="0" result="BackgroundImageFix"/>
<feBlend mode="normal" in="SourceGraphic" in2="BackgroundImageFix" result="shape"/>
<feColorMatrix in="SourceAlpha" type="matrix" values="0 0 0 0 0 0 0 0 0 0 0 0 0 0 0 0 0 0 127 0" result="hardAlpha"/>
<feOffset dx="1" dy="1"/>
<feGaussianBlur stdDeviation="1.5"/>
<feComposite in2="hardAlpha" operator="arithmetic" k2="-1" k3="1"/>
<feColorMatrix type="matrix" values="0 0 0 0 0.878431 0 0 0 0 0.898039 0 0 0 0 0.901961 0 0 0 0.29 0"/>
<feBlend mode="normal" in2="shape" result="effect1_innerShadow_119_38"/>
</filter>
</defs>
</svg>
