<svg width="81" height="81" viewBox="0 0 81 81" fill="none" xmlns="http://www.w3.org/2000/svg">
<path d="M40.9951 80.4365C30.3107 80.4365 20.2657 76.2759 12.7107 68.7209C5.15574 61.1659 0.995117 51.1209 0.995117 40.4365C0.995117 29.7521 5.1559 19.7073 12.7107 12.1521C20.2656 4.59699 30.3107 0.436523 40.9951 0.436523C51.6795 0.436523 61.7245 4.59715 69.2795 12.1521C76.8345 19.7071 80.9951 29.7521 80.9951 40.4365C80.9951 51.1209 76.8343 61.1657 69.2795 68.7209C61.7246 76.2761 51.6795 80.4365 40.9951 80.4365ZM40.9951 5.43652C21.6961 5.43652 5.99512 21.1375 5.99512 40.4365C5.99512 59.7356 21.6961 75.4365 40.9951 75.4365C60.2942 75.4365 75.9951 59.7356 75.9951 40.4365C75.9951 21.1375 60.2942 5.43652 40.9951 5.43652Z" fill="#4FD3D3"/>
<path d="M50.0989 40.4365C52.1792 38.6026 53.4951 35.9211 53.4951 32.9365C53.4951 28.7484 50.9059 25.1556 47.2451 23.6689V20.4365C47.2451 19.0559 46.1259 17.9365 44.7451 17.9365C43.3643 17.9365 42.2451 19.0559 42.2451 20.4365V22.9365H37.2451V20.4365C37.2451 19.0559 36.1259 17.9365 34.7451 17.9365C33.3643 17.9365 32.2451 19.0559 32.2451 20.4365V22.9365H27.2451C25.8643 22.9365 24.7451 24.0559 24.7451 25.4365C24.7451 26.8171 25.8643 27.9365 27.2451 27.9365H29.7451V40.4365V52.9365H27.2451C25.8643 52.9365 24.7451 54.0559 24.7451 55.4365C24.7451 56.8172 25.8643 57.9365 27.2451 57.9365H32.2451V60.4365C32.2451 61.8172 33.3643 62.9365 34.7451 62.9365C36.1259 62.9365 37.2451 61.8172 37.2451 60.4365V57.9365H42.2451V60.4365C42.2451 61.8172 43.3643 62.9365 44.7451 62.9365C46.1259 62.9365 47.2451 61.8172 47.2451 60.4365V57.2042C50.9059 55.7175 53.4951 52.1246 53.4951 47.9365C53.4951 44.952 52.1792 42.2704 50.0989 40.4365ZM34.7451 27.9365H43.4951C46.2521 27.9365 48.4951 30.1795 48.4951 32.9365C48.4951 35.6936 46.2521 37.9365 43.4951 37.9365H34.7451V27.9365ZM43.4951 52.9365H34.7451V42.9365H43.4951C46.2521 42.9365 48.4951 45.1795 48.4951 47.9365C48.4951 50.6936 46.2521 52.9365 43.4951 52.9365Z" fill="#4FD3D3"/>
</svg>
