<svg width="81" height="81" viewBox="0 0 81 81" fill="none" xmlns="http://www.w3.org/2000/svg">
<path d="M69.2793 12.1521C61.7243 4.59715 51.6795 0.436523 40.9951 0.436523C30.3107 0.436523 20.2659 4.59715 12.7109 12.1521C5.1559 19.7075 0.995117 29.7523 0.995117 40.4365C0.995117 51.1207 5.1559 61.1656 12.7109 68.7209C20.2659 76.2759 30.3109 80.4365 40.9951 80.4365C44.5537 80.4365 48.0795 79.9725 51.4743 79.0568C52.0946 78.8896 52.462 78.2511 52.2946 77.6307C52.1273 77.0106 51.4887 76.6426 50.8686 76.8104C47.6711 77.6726 44.3492 78.1098 40.9951 78.1098C30.9323 78.1098 21.4717 74.1911 14.3561 67.0756C7.24043 59.96 3.32184 50.4992 3.32184 40.4365C3.32184 30.3739 7.24043 20.9131 14.3561 13.7975C21.4717 6.68184 30.9321 2.76324 40.9951 2.76324C51.0581 2.76324 60.5187 6.68199 67.6342 13.7975C74.7496 20.9129 78.6684 30.3739 78.6684 40.4365C78.6684 50.4992 74.7498 59.96 67.6342 67.0756C64.1934 70.5162 60.2123 73.2164 55.8014 75.1012C55.2106 75.3536 54.9362 76.0371 55.1887 76.6281C55.4412 77.2187 56.1246 77.4934 56.7156 77.2407C61.4007 75.2389 65.6278 72.3723 69.2795 68.7211C76.8343 61.1656 80.9951 51.1207 80.9951 40.4365C80.9951 29.7523 76.8343 19.7075 69.2793 12.1521Z" fill="#49496F"/>
<path d="M15.5534 19.9906C15.0389 19.6053 14.31 19.7105 13.925 20.2249C9.52527 26.103 7.19965 33.0921 7.19965 40.4366C7.19965 59.0714 22.3603 74.232 40.9951 74.232C59.63 74.232 74.7906 59.0714 74.7906 40.4366C74.7906 21.8017 59.63 6.64111 40.9951 6.64111C32.2573 6.64111 23.9617 9.97689 17.6364 16.0341C17.1725 16.4785 17.1564 17.2149 17.6007 17.6789C18.0451 18.1427 18.7814 18.1589 19.2456 17.7146C25.1357 12.0742 32.8598 8.96783 40.9951 8.96783C58.347 8.96783 72.4639 23.0847 72.4639 40.4366C72.4639 57.7885 58.347 71.9053 40.9951 71.9053C23.6432 71.9053 9.52636 57.7885 9.52636 40.4366C9.52636 33.5986 11.6915 27.0916 15.7876 21.6191C16.1726 21.1045 16.0678 20.3755 15.5534 19.9906Z" fill="#49496F"/>
<path d="M23.0554 54.638C23.6621 55.3963 24.5671 55.8311 25.5382 55.8311H47.2993C50.1815 55.8311 53.0084 54.8394 55.2589 53.0386C57.5093 51.2379 59.0968 48.6974 59.729 45.8854L61.7381 36.9479C62.5139 33.4969 61.6912 29.9333 59.4812 27.1713C57.2712 24.4093 53.975 22.8252 50.4376 22.8252H31.5281C30.03 22.8252 28.7543 23.846 28.4257 25.3077L26.26 34.9427H21.1692C19.9928 34.9427 18.9717 35.7397 18.6864 36.8808L17.5887 41.2685C17.427 41.9152 17.5695 42.5872 17.9796 43.1125C18.3896 43.6379 19.0071 43.9391 19.6736 43.9391H24.2376L22.4359 51.9538C22.2228 52.9014 22.4486 53.8797 23.0554 54.638ZM20.9434 37.4455C20.9693 37.3418 21.0621 37.2694 21.1692 37.2694H42.5337L41.4912 41.4364C41.4653 41.5402 41.3725 41.6127 41.2656 41.6127H19.9009L20.9434 37.4455ZM33.4586 43.9393H41.2654C42.4417 43.9393 43.4628 43.1424 43.7482 42.0011L44.8459 37.6135C45.0076 36.9668 44.8651 36.2947 44.455 35.7694C44.045 35.2441 43.4275 34.9429 42.7611 34.9429H35.4807L36.1823 31.8221H50.3529C51.1807 31.8221 51.9379 32.1639 52.4303 32.7602C52.9437 33.3821 53.137 34.1893 52.9603 34.975L50.9512 43.9124C50.5643 45.633 49.0626 46.8347 47.299 46.8347H32.8075L33.4586 43.9393ZM31.0739 43.9393L30.3037 47.3647C30.2051 47.8038 30.3098 48.2571 30.5911 48.6083C30.8723 48.9597 31.2917 49.1613 31.7417 49.1613H47.2995C50.1592 49.1613 52.5945 47.2127 53.2217 44.4225L55.2307 35.4852C55.5664 33.9924 55.1996 32.4591 54.2248 31.2785C53.2889 30.145 51.8778 29.4952 50.3532 29.4952H35.4998C34.8054 29.4952 34.2142 29.9685 34.0621 30.6457L33.0962 34.9427H28.6445L30.6957 25.818C30.7839 25.426 31.1262 25.1521 31.5281 25.1521H50.4376C53.2643 25.1521 55.8986 26.418 57.6646 28.625C59.4307 30.8324 60.0881 33.68 59.4681 36.4379L57.459 45.3754C56.9423 47.6738 55.6448 49.7502 53.8053 51.2221C51.9657 52.6939 49.6553 53.5046 47.2993 53.5046H25.5382C25.1815 53.5046 24.9678 53.3039 24.8721 53.1846C24.7764 53.0649 24.6276 52.8124 24.7059 52.4643L26.6223 43.9394H31.0739V43.9393Z" fill="#49496F"/>
</svg>
