<svg width="11" height="17" viewBox="0 0 11 17" fill="none" xmlns="http://www.w3.org/2000/svg">
<path d="M5.87703 7.9296C7.32328 7.9296 8.4999 6.75313 8.4999 5.30707C8.4999 3.86101 7.32328 2.68457 5.87703 2.68457C4.43078 2.68457 3.25415 3.86101 3.25415 5.30707C3.25415 6.75313 4.43078 7.9296 5.87703 7.9296ZM5.87703 3.62195C6.80634 3.62195 7.5624 4.37791 7.5624 5.30707C7.5624 6.23626 6.80637 6.99223 5.87703 6.99223C4.94768 6.99223 4.19165 6.23626 4.19165 5.30707C4.19165 4.37791 4.94771 3.62195 5.87703 3.62195Z" fill="#F5F5FF"/>
<path d="M3.0212 10.0197C3.73167 10.9815 3.44623 10.6075 5.49264 13.5292C5.67864 13.7958 6.07417 13.797 6.26123 13.5296C8.31689 10.594 8.03404 10.9658 8.73295 10.0197C9.44092 9.06119 10.173 8.07006 10.5742 6.90863C11.1549 5.22734 10.9039 3.56381 9.86755 2.22444C9.86751 2.22444 9.86751 2.22441 9.86748 2.22441C8.91817 0.997875 7.42642 0.265625 5.87708 0.265625C4.32773 0.265625 2.83598 0.997875 1.88664 2.22447C0.850294 3.56384 0.599294 5.22741 1.17998 6.90869C1.58111 8.07009 2.31323 9.06122 3.0212 10.0197ZM2.62808 2.79809C3.40114 1.79931 4.61573 1.203 5.87708 1.203C7.13842 1.203 8.35301 1.79931 9.12608 2.79809L9.12601 2.79806C9.96248 3.87906 10.162 5.23025 9.68804 6.60269C9.3337 7.62856 8.64492 8.56103 7.97883 9.46281C7.4602 10.1649 7.61542 9.95016 5.87708 12.442C4.14054 9.95266 4.29379 10.1647 3.77533 9.46281C3.10923 8.56103 2.42045 7.62853 2.06611 6.60269C1.59211 5.23022 1.79167 3.87906 2.62808 2.79809Z" fill="#F5F5FF"/>
<path d="M3.40622 12.0524C3.26797 11.8336 2.97847 11.7682 2.7596 11.9065L1.42679 12.7483C1.13604 12.9319 1.13575 13.357 1.42679 13.5408L5.62679 16.1935C5.77969 16.2901 5.97457 16.2901 6.12744 16.1935L10.3274 13.5408C10.6182 13.3572 10.6185 12.9321 10.3274 12.7483L8.99463 11.9065C8.77569 11.7682 8.48622 11.8336 8.34801 12.0524C8.20972 12.2713 8.2751 12.5607 8.49397 12.699L9.19941 13.1445L5.8771 15.2429L2.55482 13.1445L3.26026 12.699C3.47913 12.5608 3.54447 12.2713 3.40622 12.0524Z" fill="#F5F5FF"/>
</svg>