<svg width="96" height="105" viewBox="0 0 96 105" fill="none" xmlns="http://www.w3.org/2000/svg">
<g filter="url(#filter0_d_42_3)">
<path d="M69.4511 49.5193H75.729C77.1482 49.5193 78.3029 48.3646 78.3029 46.9453V40.6674C78.3029 39.2482 77.1482 38.0935 75.729 38.0935H69.4511C68.0319 38.0935 66.8771 39.2482 66.8771 40.6674V46.9453C66.8771 48.3646 68.0319 49.5193 69.4511 49.5193ZM69.5139 40.7302H75.6662V46.8825H69.5139V40.7302ZM69.4511 66.2185H75.729C77.1482 66.2185 78.3029 65.0638 78.3029 63.6445V57.3667C78.3029 55.9474 77.1482 54.7927 75.729 54.7927H69.4511C68.0319 54.7927 66.8771 55.9474 66.8771 57.3667V63.6445C66.8771 65.0638 68.0319 66.2185 69.4511 66.2185ZM69.5139 57.4294H75.6662V63.5818H69.5139V57.4294ZM51.5362 49.5193H57.814C59.2333 49.5193 60.388 48.3646 60.388 46.9453V40.6674C60.388 39.2482 59.2333 38.0935 57.814 38.0935H51.5362C50.1169 38.0935 48.9622 39.2482 48.9622 40.6674V46.9453C48.9622 48.3646 50.1169 49.5193 51.5362 49.5193ZM51.5989 40.7302H57.7513V46.8825H51.5989V40.7302ZM21.9842 70.709H15.7064C14.2871 70.709 13.1324 71.8637 13.1324 73.283V79.5608C13.1324 80.9801 14.2871 82.1348 15.7064 82.1348H21.9842C23.4035 82.1348 24.5582 80.9801 24.5582 79.5608V73.283C24.5582 71.8637 23.4035 70.709 21.9842 70.709ZM21.9215 79.498H15.7691V73.3457H21.9215V79.498ZM21.9842 38.0935H15.7064C14.2871 38.0935 13.1324 39.2482 13.1324 40.6674V46.9453C13.1324 48.3646 14.2871 49.5193 15.7064 49.5193H21.9842C23.4035 49.5193 24.5582 48.3646 24.5582 46.9453V40.6674C24.5582 39.248 23.4035 38.0935 21.9842 38.0935ZM21.9215 46.8825H15.7691V40.7302H21.9215V46.8825ZM51.5362 65.827H57.814C59.2333 65.827 60.388 64.6723 60.388 63.253V56.9752C60.388 55.5559 59.2333 54.4012 57.814 54.4012H51.5362C50.1169 54.4012 48.9622 55.5559 48.9622 56.9752V63.253C48.9622 64.6723 50.1169 65.827 51.5362 65.827ZM51.5989 57.0379H57.7513V63.1903H51.5989V57.0379ZM79.6123 11.3431H73.9757V9.3274C73.9757 7.11678 72.1773 5.31836 69.9667 5.31836H69.3613C67.1508 5.31836 65.3524 7.11678 65.3524 9.3274V11.3431H26.0829V9.3274C26.0829 7.11678 24.2845 5.31836 22.0739 5.31836H21.4685C19.2578 5.31836 17.4594 7.11678 17.4594 9.3274V11.3431H11.823C8.18345 11.3431 5.22241 14.3041 5.22241 17.9437V88.7266C5.22241 92.3614 8.1794 95.3184 11.8142 95.3184H79.6215C83.2563 95.3184 86.2133 92.3614 86.2133 88.7266V17.9437C86.2131 14.3041 83.2521 11.3431 79.6123 11.3431ZM67.9891 9.3274C67.9891 8.57066 68.6047 7.95508 69.3615 7.95508H69.9669C70.7236 7.95508 71.3392 8.57066 71.3392 9.3274V11.3431H67.9891V9.3274ZM20.0963 9.3274C20.0963 8.57066 20.7119 7.95508 21.4686 7.95508H22.074C22.8308 7.95508 23.4464 8.57066 23.4464 9.3274V11.3431H20.0965V9.3274H20.0963ZM83.5764 88.7266C83.5764 90.9075 81.8022 92.6816 79.6213 92.6816H11.814C9.63311 92.6816 7.85895 90.9075 7.85895 88.7266V88.7183C8.96356 89.5506 10.3366 90.0449 11.823 90.0449H65.2751C67.0382 90.0449 68.6958 89.3583 69.9424 88.1115L83.5764 74.4776V88.7266ZM68.5972 85.7279C68.7005 85.3013 68.7568 84.8564 68.7568 84.3985V75.5982C68.7568 73.9388 70.107 72.5886 71.7665 72.5886H80.5666C81.0246 72.5886 81.4695 72.5324 81.8961 72.429L68.5972 85.7279ZM83.5764 30.1833H27.4013C26.6732 30.1833 26.0829 30.7736 26.0829 31.5017C26.0829 32.2298 26.6732 32.82 27.4013 32.82H83.5764V66.9423C83.5764 68.6019 82.2262 69.9521 80.5666 69.9521H71.7665C68.6531 69.9521 66.1201 72.4851 66.1201 75.5983V84.3987C66.1201 86.0582 64.7699 87.4084 63.1105 87.4084H11.823C9.63733 87.4084 7.85913 85.6302 7.85913 83.4443V32.82H22.1278C22.8559 32.82 23.4462 32.2298 23.4462 31.5017C23.4462 30.7736 22.8559 30.1833 22.1278 30.1833H7.85895V17.9437C7.85895 15.758 9.63716 13.9798 11.8228 13.9798H17.4594V17.8561C17.4594 20.0668 19.2578 21.8652 21.4685 21.8652C22.1966 21.8652 22.7868 21.2749 22.7868 20.5468C22.7868 19.8187 22.1966 19.2285 21.4685 19.2285C20.7117 19.2285 20.0961 18.6129 20.0961 17.8561V13.9798H65.3524V17.8561C65.3524 20.0668 67.1508 21.8652 69.3615 21.8652C70.0896 21.8652 70.6798 21.2749 70.6798 20.5468C70.6798 19.8187 70.0896 19.2285 69.3615 19.2285C68.6047 19.2285 67.9891 18.6129 67.9891 17.8561V13.9798H79.6125C81.7982 13.9798 83.5764 15.758 83.5764 17.9437V30.1833ZM21.9842 54.4012H15.7064C14.2871 54.4012 13.1324 55.5559 13.1324 56.9752V63.253C13.1324 64.6723 14.2871 65.827 15.7064 65.827H21.9842C23.4035 65.827 24.5582 64.6723 24.5582 63.253V56.9752C24.5582 55.5558 23.4035 54.4012 21.9842 54.4012ZM21.9215 63.1903H15.7691V57.0379H21.9215V63.1903ZM33.6213 49.5193H39.8991C41.3184 49.5193 42.4731 48.3646 42.4731 46.9453V40.6674C42.4731 39.2482 41.3184 38.0935 39.8991 38.0935H33.6213C32.202 38.0935 31.0473 39.2482 31.0473 40.6674V46.9453C31.0473 48.3646 32.202 49.5193 33.6213 49.5193ZM33.684 40.7302H39.8364V46.8825H33.684V40.7302ZM51.5974 79.498C51.5647 78.799 50.9876 78.2424 50.2804 78.2424C49.5523 78.2424 48.9621 78.8327 48.9621 79.5608C48.9621 80.9801 50.1168 82.1348 51.536 82.1348H57.8139C59.2331 82.1348 60.3878 80.9801 60.3878 79.5608V73.283C60.3878 71.8637 59.2331 70.709 57.8139 70.709H51.536C50.1168 70.709 48.9621 71.8637 48.9621 73.283V75.0935C48.9621 75.8216 49.5523 76.4119 50.2804 76.4119C51.0085 76.4119 51.5988 75.8216 51.5988 75.0935V73.3457H57.7511V79.498H51.5974ZM33.6213 65.827H39.8991C41.3184 65.827 42.4731 64.6723 42.4731 63.253V56.9752C42.4731 55.5559 41.3184 54.4012 39.8991 54.4012H33.6213C32.202 54.4012 31.0473 55.5559 31.0473 56.9752V63.253C31.0473 64.6723 32.202 65.827 33.6213 65.827ZM33.684 57.0379H39.8364V63.1903H33.684V57.0379ZM33.6213 82.1348H39.8991C41.3184 82.1348 42.4731 80.9801 42.4731 79.5608V73.283C42.4731 71.8637 41.3184 70.709 39.8991 70.709H33.6213C32.202 70.709 31.0473 71.8637 31.0473 73.283V79.5608C31.0473 80.9801 32.202 82.1348 33.6213 82.1348ZM33.684 73.3457H39.8364V79.498H33.684V73.3457Z" fill="#8ADADF"/>
</g>
<defs>
<filter id="filter0_d_42_3" x="0.222412" y="0.318359" width="94.9908" height="104" filterUnits="userSpaceOnUse" color-interpolation-filters="sRGB">
<feFlood flood-opacity="0" result="BackgroundImageFix"/>
<feColorMatrix in="SourceAlpha" type="matrix" values="0 0 0 0 0 0 0 0 0 0 0 0 0 0 0 0 0 0 127 0" result="hardAlpha"/>
<feOffset dx="2" dy="2"/>
<feGaussianBlur stdDeviation="3.5"/>
<feComposite in2="hardAlpha" operator="out"/>
<feColorMatrix type="matrix" values="0 0 0 0 0 0 0 0 0 0 0 0 0 0 0 0 0 0 0.16 0"/>
<feBlend mode="normal" in2="BackgroundImageFix" result="effect1_dropShadow_42_3"/>
<feBlend mode="normal" in="SourceGraphic" in2="effect1_dropShadow_42_3" result="shape"/>
</filter>
</defs>
</svg>
