<svg width="81" height="81" viewBox="0 0 81 81" fill="none" xmlns="http://www.w3.org/2000/svg">
<path d="M69.2794 12.1522C61.7245 4.59729 51.6793 0.436523 40.9951 0.436523C30.3109 0.436523 20.2657 4.59729 12.7108 12.1522C5.15588 19.7072 0.995117 29.7523 0.995117 40.4365C0.995117 51.1207 5.15588 61.1659 12.7108 68.7208C20.2657 76.2758 30.3109 80.4365 40.9951 80.4365C51.6793 80.4365 61.7245 76.2758 69.2794 68.7208C76.8344 61.1659 80.9951 51.1207 80.9951 40.4365C80.9951 29.7523 76.8344 19.7072 69.2794 12.1522ZM40.9951 74.1865C22.3855 74.1865 7.24512 59.0461 7.24512 40.4365C7.24512 21.8269 22.3855 6.68652 40.9951 6.68652C59.6047 6.68652 74.7451 21.8269 74.7451 40.4365C74.7451 59.0461 59.6047 74.1865 40.9951 74.1865ZM31.3387 55.4365H60.7833L59.1201 61.6865H23.2076L28.3926 42.093L18.3389 45.749L20.2877 38.3809L30.3427 34.7249L35.9017 13.7178H42.3721L37.5051 32.1199L47.7877 28.3809L45.8389 35.749L35.5563 39.488L31.3387 55.4365Z" fill="#49496F"/>
</svg>
