<svg width="80" height="81" viewBox="0 0 80 81" fill="none" xmlns="http://www.w3.org/2000/svg">
<path d="M40 80.4429C29.3156 80.4429 19.2706 76.2822 11.7156 68.7272C4.16063 61.1722 0 51.1272 0 40.4429C0 29.7585 4.16078 19.7137 11.7156 12.1585C19.2705 4.60334 29.3156 0.442871 40 0.442871C50.6844 0.442871 60.7294 4.6035 68.2844 12.1585C75.8394 19.7135 80 29.7585 80 40.4429C80 51.1272 75.8392 61.1721 68.2844 68.7272C60.7295 76.2824 50.6844 80.4429 40 80.4429V80.4429ZM40 5.44287C20.7009 5.44287 5 21.1438 5 40.4429C5 59.7419 20.7009 75.4429 40 75.4429C59.2991 75.4429 75 59.7419 75 40.4429C75 21.1438 59.2991 5.44287 40 5.44287Z" fill="#49496F"/>
<path d="M49.1038 40.4429C51.1841 38.609 52.5 35.9274 52.5 32.9429C52.5 28.7547 49.9108 25.1619 46.25 23.6752V20.4429C46.25 19.0622 45.1308 17.9429 43.75 17.9429C42.3692 17.9429 41.25 19.0622 41.25 20.4429V22.9429H36.25V20.4429C36.25 19.0622 35.1308 17.9429 33.75 17.9429C32.3692 17.9429 31.25 19.0622 31.25 20.4429V22.9429H26.25C24.8692 22.9429 23.75 24.0622 23.75 25.4429C23.75 26.8235 24.8692 27.9429 26.25 27.9429H28.75V40.4429V52.9429H26.25C24.8692 52.9429 23.75 54.0622 23.75 55.4429C23.75 56.8235 24.8692 57.9429 26.25 57.9429H31.25V60.4429C31.25 61.8235 32.3692 62.9429 33.75 62.9429C35.1308 62.9429 36.25 61.8235 36.25 60.4429V57.9429H41.25V60.4429C41.25 61.8235 42.3692 62.9429 43.75 62.9429C45.1308 62.9429 46.25 61.8235 46.25 60.4429V57.2105C49.9108 55.7238 52.5 52.131 52.5 47.9429C52.5 44.9583 51.1841 42.2768 49.1038 40.4429ZM33.75 27.9429H42.5C45.257 27.9429 47.5 30.1858 47.5 32.9429C47.5 35.6999 45.257 37.9429 42.5 37.9429H33.75V27.9429ZM42.5 52.9429H33.75V42.9429H42.5C45.257 42.9429 47.5 45.1858 47.5 47.9429C47.5 50.6999 45.257 52.9429 42.5 52.9429Z" fill="#49496F"/>
</svg>
