<svg width="80" height="81" viewBox="0 0 80 81" fill="none" xmlns="http://www.w3.org/2000/svg">
<path d="M68.2842 12.1585C60.7292 4.6035 50.6844 0.442871 40 0.442871C29.3156 0.442871 19.2708 4.6035 11.7158 12.1585C4.16078 19.7138 0 29.7587 0 40.4429C0 51.1271 4.16078 61.1719 11.7158 68.7272C19.2708 76.2822 29.3158 80.4429 40 80.4429C43.5586 80.4429 47.0844 79.9788 50.4792 79.0632C51.0995 78.896 51.4669 78.2574 51.2995 77.6371C51.1322 77.0169 50.4936 76.649 49.8734 76.8168C46.6759 77.679 43.3541 78.1161 40 78.1161C29.9372 78.1161 20.4766 74.1974 13.3609 67.0819C6.24531 59.9663 2.32672 50.5055 2.32672 40.4429C2.32672 30.3802 6.24531 20.9194 13.3609 13.8038C20.4766 6.68818 29.937 2.76959 40 2.76959C50.063 2.76959 59.5236 6.68834 66.6391 13.8038C73.7545 20.9193 77.6733 30.3802 77.6733 40.4429C77.6733 50.5055 73.7547 59.9663 66.6391 67.0819C63.1983 70.5226 59.2172 73.2227 54.8063 75.1076C54.2155 75.3599 53.9411 76.0435 54.1936 76.6344C54.4461 77.2251 55.1295 77.4997 55.7205 77.2471C60.4056 75.2452 64.6327 72.3787 68.2844 68.7274C75.8392 61.1719 80 51.1271 80 40.4429C80 29.7587 75.8392 19.7138 68.2842 12.1585Z" fill="#49496F"/>
<path d="M14.5583 19.997C14.0437 19.6117 13.3148 19.7168 12.9298 20.2312C8.53015 26.1093 6.20453 33.0984 6.20453 40.4429C6.20453 59.0778 21.3652 74.2384 40 74.2384C58.6348 74.2384 73.7955 59.0778 73.7955 40.4429C73.7955 21.8081 58.6348 6.64746 40 6.64746C31.2622 6.64746 22.9666 9.98324 16.6412 16.0404C16.1773 16.4848 16.1612 17.2212 16.6056 17.6853C17.05 18.149 17.7862 18.1653 18.2505 17.7209C24.1406 12.0806 31.8647 8.97418 40 8.97418C57.3519 8.97418 71.4687 23.0911 71.4687 40.4429C71.4687 57.7948 57.3519 71.9117 40 71.9117C22.6481 71.9117 8.53125 57.7948 8.53125 40.4429C8.53125 33.605 10.6964 27.0979 14.7925 21.6254C15.1775 21.1109 15.0727 20.3818 14.5583 19.997Z" fill="#49496F"/>
<path d="M22.0603 54.6444C22.667 55.4026 23.572 55.8375 24.5431 55.8375H46.3042C49.1864 55.8375 52.0133 54.8458 54.2637 53.045C56.5142 51.2442 58.1017 48.7037 58.7339 45.8917L60.743 36.9542C61.5187 33.5033 60.6961 29.9397 58.4861 27.1776C56.2761 24.4156 52.9798 22.8315 49.4425 22.8315H30.533C29.0348 22.8315 27.7592 23.8523 27.4306 25.314L25.2648 34.949H20.1741C18.9977 34.949 17.9766 35.7461 17.6912 36.8872L16.5936 41.2748C16.4319 41.9215 16.5744 42.5936 16.9845 43.1189C17.3945 43.6442 18.012 43.9454 18.6784 43.9454H23.2425L21.4408 51.9601C21.2277 52.9078 21.4534 53.8861 22.0603 54.6444ZM19.9483 37.4519C19.9742 37.3481 20.067 37.2758 20.1741 37.2758H41.5386L40.4961 41.4428C40.4702 41.5465 40.3773 41.619 40.2705 41.619H18.9058L19.9483 37.4519ZM32.4634 43.9456H40.2703C41.4466 43.9456 42.4677 43.1487 42.7531 42.0075L43.8508 37.6198C44.0125 36.9731 43.87 36.3011 43.4598 35.7758C43.0498 35.2504 42.4323 34.9492 41.7659 34.9492H34.4856L35.1872 31.8284H49.3578C50.1856 31.8284 50.9428 32.1703 51.4352 32.7665C51.9486 33.3884 52.1419 34.1956 51.9652 34.9814L49.9561 43.9187C49.5692 45.6394 48.0675 46.8411 46.3039 46.8411H31.8123L32.4634 43.9456ZM30.0787 43.9456L29.3086 47.3711C29.21 47.8101 29.3147 48.2634 29.5959 48.6147C29.8772 48.9661 30.2966 49.1676 30.7466 49.1676H46.3044C49.1641 49.1676 51.5994 47.219 52.2266 44.4289L54.2356 35.4915C54.5712 33.9987 54.2045 32.4654 53.2297 31.2848C52.2938 30.1514 50.8827 29.5015 49.3581 29.5015H34.5047C33.8103 29.5015 33.2191 29.9748 33.067 30.652L32.1011 34.949H27.6494L29.7006 25.8244C29.7887 25.4323 30.1311 25.1584 30.533 25.1584H49.4425C52.2692 25.1584 54.9034 26.4244 56.6695 28.6314C58.4356 30.8387 59.093 33.6864 58.473 36.4442L56.4639 45.3817C55.9472 47.6801 54.6497 49.7565 52.8102 51.2284C50.9706 52.7003 48.6602 53.5109 46.3042 53.5109H24.5431C24.1864 53.5109 23.9727 53.3103 23.877 53.1909C23.7812 53.0712 23.6325 52.8187 23.7108 52.4706L25.6272 43.9458H30.0787V43.9456Z" fill="#49496F"/>
</svg>
