<svg width="80" height="81" viewBox="0 0 80 81" fill="none" xmlns="http://www.w3.org/2000/svg">
<path d="M68.2843 12.1586C60.7294 4.60364 50.6842 0.442871 40 0.442871C29.3158 0.442871 19.2706 4.60364 11.7157 12.1586C4.16077 19.7135 0 29.7587 0 40.4429C0 51.1271 4.16077 61.1722 11.7157 68.7272C19.2706 76.2821 29.3158 80.4429 40 80.4429C50.6842 80.4429 60.7294 76.2821 68.2843 68.7272C75.8392 61.1722 80 51.1271 80 40.4429C80 29.7587 75.8392 19.7135 68.2843 12.1586ZM40 74.1929C21.3904 74.1929 6.25 59.0525 6.25 40.4429C6.25 21.8333 21.3904 6.69287 40 6.69287C58.6096 6.69287 73.75 21.8333 73.75 40.4429C73.75 59.0525 58.6096 74.1929 40 74.1929ZM30.3436 55.4429H59.7882L58.125 61.6929H22.2125L27.3975 42.0994L17.3438 45.7554L19.2926 38.3872L29.3475 34.7312L34.9066 13.7241H41.377L36.51 32.1262L46.7926 28.3872L44.8438 35.7554L34.5612 39.4944L30.3436 55.4429Z" fill="#49496F"/>
</svg>
